<svg width="240" height="55" viewBox="0 0 240 55" fill="none" xmlns="http://www.w3.org/2000/svg">
<path d="M54.3789 22.2109L49.2812 37H46.1992L52.6211 19.9375H54.5898L54.3789 22.2109ZM58.6445 37L53.5352 22.2109L53.3125 19.9375H55.293L61.7383 37H58.6445ZM58.3984 30.6719V33.0039H49.1172V30.6719H58.3984ZM71.1016 34.375V19H73.9375V37H71.3711L71.1016 34.375ZM62.8516 30.8008V30.5547C62.8516 29.5938 62.9648 28.7188 63.1914 27.9297C63.418 27.1328 63.7461 26.4492 64.1758 25.8789C64.6055 25.3008 65.1289 24.8594 65.7461 24.5547C66.3633 24.2422 67.0586 24.0859 67.832 24.0859C68.5977 24.0859 69.2695 24.2344 69.8477 24.5312C70.4258 24.8281 70.918 25.2539 71.3242 25.8086C71.7305 26.3555 72.0547 27.0117 72.2969 27.7773C72.5391 28.5352 72.7109 29.3789 72.8125 30.3086V31.0938C72.7109 32 72.5391 32.8281 72.2969 33.5781C72.0547 34.3281 71.7305 34.9766 71.3242 35.5234C70.918 36.0703 70.4219 36.4922 69.8359 36.7891C69.2578 37.0859 68.582 37.2344 67.8086 37.2344C67.043 37.2344 66.3516 37.0742 65.7344 36.7539C65.125 36.4336 64.6055 35.9844 64.1758 35.4062C63.7461 34.8281 63.418 34.1484 63.1914 33.3672C62.9648 32.5781 62.8516 31.7227 62.8516 30.8008ZM65.6758 30.5547V30.8008C65.6758 31.3789 65.7266 31.918 65.8281 32.418C65.9375 32.918 66.1055 33.3594 66.332 33.7422C66.5586 34.1172 66.8516 34.4141 67.2109 34.6328C67.5781 34.8438 68.0156 34.9492 68.5234 34.9492C69.1641 34.9492 69.6914 34.8086 70.1055 34.5273C70.5195 34.2461 70.8438 33.8672 71.0781 33.3906C71.3203 32.9062 71.4844 32.3672 71.5703 31.7734V29.6523C71.5234 29.1914 71.4258 28.7617 71.2773 28.3633C71.1367 27.9648 70.9453 27.6172 70.7031 27.3203C70.4609 27.0156 70.1602 26.7812 69.8008 26.6172C69.4492 26.4453 69.0312 26.3594 68.5469 26.3594C68.0312 26.3594 67.5938 26.4688 67.2344 26.6875C66.875 26.9062 66.5781 27.207 66.3438 27.5898C66.1172 27.9727 65.9492 28.418 65.8398 28.9258C65.7305 29.4336 65.6758 29.9766 65.6758 30.5547ZM82.4805 37.2344C81.543 37.2344 80.6953 37.082 79.9375 36.7773C79.1875 36.4648 78.5469 36.0312 78.0156 35.4766C77.4922 34.9219 77.0898 34.2695 76.8086 33.5195C76.5273 32.7695 76.3867 31.9609 76.3867 31.0938V30.625C76.3867 29.6328 76.5312 28.7344 76.8203 27.9297C77.1094 27.125 77.5117 26.4375 78.0273 25.8672C78.543 25.2891 79.1523 24.8477 79.8555 24.543C80.5586 24.2383 81.3203 24.0859 82.1406 24.0859C83.0469 24.0859 83.8398 24.2383 84.5195 24.543C85.1992 24.8477 85.7617 25.2773 86.207 25.832C86.6602 26.3789 86.9961 27.0312 87.2148 27.7891C87.4414 28.5469 87.5547 29.3828 87.5547 30.2969V31.5039H77.7578V29.4766H84.7656V29.2539C84.75 28.7461 84.6484 28.2695 84.4609 27.8242C84.2812 27.3789 84.0039 27.0195 83.6289 26.7461C83.2539 26.4727 82.7539 26.3359 82.1289 26.3359C81.6602 26.3359 81.2422 26.4375 80.875 26.6406C80.5156 26.8359 80.2148 27.1211 79.9727 27.4961C79.7305 27.8711 79.543 28.3242 79.4102 28.8555C79.2852 29.3789 79.2227 29.9688 79.2227 30.625V31.0938C79.2227 31.6484 79.2969 32.1641 79.4453 32.6406C79.6016 33.1094 79.8281 33.5195 80.125 33.8711C80.4219 34.2227 80.7812 34.5 81.2031 34.7031C81.625 34.8984 82.1055 34.9961 82.6445 34.9961C83.3242 34.9961 83.9297 34.8594 84.4609 34.5859C84.9922 34.3125 85.4531 33.9258 85.8438 33.4258L87.332 34.8672C87.0586 35.2656 86.7031 35.6484 86.2656 36.0156C85.8281 36.375 85.293 36.668 84.6602 36.8945C84.0352 37.1211 83.3086 37.2344 82.4805 37.2344ZM96.8711 33.5664C96.8711 33.2852 96.8008 33.0312 96.6602 32.8047C96.5195 32.5703 96.25 32.3594 95.8516 32.1719C95.4609 31.9844 94.8828 31.8125 94.1172 31.6562C93.4453 31.5078 92.8281 31.332 92.2656 31.1289C91.7109 30.918 91.2344 30.6641 90.8359 30.3672C90.4375 30.0703 90.1289 29.7188 89.9102 29.3125C89.6914 28.9062 89.582 28.4375 89.582 27.9062C89.582 27.3906 89.6953 26.9023 89.9219 26.4414C90.1484 25.9805 90.4727 25.5742 90.8945 25.2227C91.3164 24.8711 91.8281 24.5938 92.4297 24.3906C93.0391 24.1875 93.7188 24.0859 94.4688 24.0859C95.5312 24.0859 96.4414 24.2656 97.1992 24.625C97.9648 24.9766 98.5508 25.457 98.957 26.0664C99.3633 26.668 99.5664 27.3477 99.5664 28.1055H96.7422C96.7422 27.7695 96.6562 27.457 96.4844 27.168C96.3203 26.8711 96.0703 26.6328 95.7344 26.4531C95.3984 26.2656 94.9766 26.1719 94.4688 26.1719C93.9844 26.1719 93.582 26.25 93.2617 26.4062C92.9492 26.5547 92.7148 26.75 92.5586 26.9922C92.4102 27.2344 92.3359 27.5 92.3359 27.7891C92.3359 28 92.375 28.1914 92.4531 28.3633C92.5391 28.5273 92.6797 28.6797 92.875 28.8203C93.0703 28.9531 93.3359 29.0781 93.6719 29.1953C94.0156 29.3125 94.4453 29.4258 94.9609 29.5352C95.9297 29.7383 96.7617 30 97.457 30.3203C98.1602 30.6328 98.6992 31.0391 99.0742 31.5391C99.4492 32.0312 99.6367 32.6562 99.6367 33.4141C99.6367 33.9766 99.5156 34.4922 99.2734 34.9609C99.0391 35.4219 98.6953 35.8242 98.2422 36.168C97.7891 36.5039 97.2461 36.7656 96.6133 36.9531C95.9883 37.1406 95.2852 37.2344 94.5039 37.2344C93.3555 37.2344 92.3828 37.0312 91.5859 36.625C90.7891 36.2109 90.1836 35.6836 89.7695 35.043C89.3633 34.3945 89.1602 33.7227 89.1602 33.0273H91.8906C91.9219 33.5508 92.0664 33.9688 92.3242 34.2812C92.5898 34.5859 92.918 34.8086 93.3086 34.9492C93.707 35.082 94.1172 35.1484 94.5391 35.1484C95.0469 35.1484 95.4727 35.082 95.8164 34.9492C96.1602 34.8086 96.4219 34.6211 96.6016 34.3867C96.7812 34.1445 96.8711 33.8711 96.8711 33.5664ZM104.898 19V37H102.086V19H104.898ZM104.406 30.1914L103.492 30.1797C103.5 29.3047 103.621 28.4961 103.855 27.7539C104.098 27.0117 104.434 26.3672 104.863 25.8203C105.301 25.2656 105.824 24.8398 106.434 24.543C107.043 24.2383 107.719 24.0859 108.461 24.0859C109.086 24.0859 109.648 24.1719 110.148 24.3438C110.656 24.5156 111.094 24.793 111.461 25.1758C111.828 25.5508 112.105 26.043 112.293 26.6523C112.488 27.2539 112.586 27.9883 112.586 28.8555V37H109.75V28.832C109.75 28.2227 109.66 27.7383 109.48 27.3789C109.309 27.0195 109.055 26.7617 108.719 26.6055C108.383 26.4414 107.973 26.3594 107.488 26.3594C106.98 26.3594 106.531 26.4609 106.141 26.6641C105.758 26.8672 105.438 27.1445 105.18 27.4961C104.922 27.8477 104.727 28.2539 104.594 28.7148C104.469 29.1758 104.406 29.668 104.406 30.1914ZM114.906 30.8008V30.5312C114.906 29.6172 115.039 28.7695 115.305 27.9883C115.57 27.1992 115.953 26.5156 116.453 25.9375C116.961 25.3516 117.578 24.8984 118.305 24.5781C119.039 24.25 119.867 24.0859 120.789 24.0859C121.719 24.0859 122.547 24.25 123.273 24.5781C124.008 24.8984 124.629 25.3516 125.137 25.9375C125.645 26.5156 126.031 27.1992 126.297 27.9883C126.562 28.7695 126.695 29.6172 126.695 30.5312V30.8008C126.695 31.7148 126.562 32.5625 126.297 33.3438C126.031 34.125 125.645 34.8086 125.137 35.3945C124.629 35.9727 124.012 36.4258 123.285 36.7539C122.559 37.0742 121.734 37.2344 120.812 37.2344C119.883 37.2344 119.051 37.0742 118.316 36.7539C117.59 36.4258 116.973 35.9727 116.465 35.3945C115.957 34.8086 115.57 34.125 115.305 33.3438C115.039 32.5625 114.906 31.7148 114.906 30.8008ZM117.73 30.5312V30.8008C117.73 31.3711 117.789 31.9102 117.906 32.418C118.023 32.9258 118.207 33.3711 118.457 33.7539C118.707 34.1367 119.027 34.4375 119.418 34.6562C119.809 34.875 120.273 34.9844 120.812 34.9844C121.336 34.9844 121.789 34.875 122.172 34.6562C122.562 34.4375 122.883 34.1367 123.133 33.7539C123.383 33.3711 123.566 32.9258 123.684 32.418C123.809 31.9102 123.871 31.3711 123.871 30.8008V30.5312C123.871 29.9688 123.809 29.4375 123.684 28.9375C123.566 28.4297 123.379 27.9805 123.121 27.5898C122.871 27.1992 122.551 26.8945 122.16 26.6758C121.777 26.4492 121.32 26.3359 120.789 26.3359C120.258 26.3359 119.797 26.4492 119.406 26.6758C119.023 26.8945 118.707 27.1992 118.457 27.5898C118.207 27.9805 118.023 28.4297 117.906 28.9375C117.789 29.4375 117.73 29.9688 117.73 30.5312ZM132.883 37H130.059V23.1016C130.059 22.1562 130.234 21.3633 130.586 20.7227C130.945 20.0742 131.457 19.5859 132.121 19.2578C132.785 18.9219 133.57 18.7539 134.477 18.7539C134.758 18.7539 135.035 18.7734 135.309 18.8125C135.582 18.8438 135.848 18.8945 136.105 18.9648L136.035 21.1445C135.879 21.1055 135.707 21.0781 135.52 21.0625C135.34 21.0469 135.145 21.0391 134.934 21.0391C134.504 21.0391 134.133 21.1211 133.82 21.2852C133.516 21.4414 133.281 21.6719 133.117 21.9766C132.961 22.2812 132.883 22.6562 132.883 23.1016V37ZM135.496 24.3203V26.3828H128.113V24.3203H135.496ZM143.359 24.3203V26.3828H136.211V24.3203H143.359ZM138.273 21.2148H141.098V33.4961C141.098 33.8867 141.152 34.1875 141.262 34.3984C141.379 34.6016 141.539 34.7383 141.742 34.8086C141.945 34.8789 142.184 34.9141 142.457 34.9141C142.652 34.9141 142.84 34.9023 143.02 34.8789C143.199 34.8555 143.344 34.832 143.453 34.8086L143.465 36.9648C143.23 37.0352 142.957 37.0977 142.645 37.1523C142.34 37.207 141.988 37.2344 141.59 37.2344C140.941 37.2344 140.367 37.1211 139.867 36.8945C139.367 36.6602 138.977 36.2812 138.695 35.7578C138.414 35.2344 138.273 34.5391 138.273 33.6719V21.2148ZM160.773 32.6055C160.773 32.2539 160.719 31.9414 160.609 31.668C160.508 31.3945 160.324 31.1445 160.059 30.918C159.793 30.6914 159.418 30.4727 158.934 30.2617C158.457 30.043 157.848 29.8203 157.105 29.5938C156.293 29.3438 155.543 29.0664 154.855 28.7617C154.176 28.4492 153.582 28.0898 153.074 27.6836C152.566 27.2695 152.172 26.7969 151.891 26.2656C151.609 25.7266 151.469 25.1055 151.469 24.4023C151.469 23.707 151.613 23.0742 151.902 22.5039C152.199 21.9336 152.617 21.4414 153.156 21.0273C153.703 20.6055 154.348 20.2812 155.09 20.0547C155.832 19.8203 156.652 19.7031 157.551 19.7031C158.816 19.7031 159.906 19.9375 160.82 20.4062C161.742 20.875 162.449 21.5039 162.941 22.293C163.441 23.082 163.691 23.9531 163.691 24.9062H160.773C160.773 24.3438 160.652 23.8477 160.41 23.418C160.176 22.9805 159.816 22.6367 159.332 22.3867C158.855 22.1367 158.25 22.0117 157.516 22.0117C156.82 22.0117 156.242 22.1172 155.781 22.3281C155.32 22.5391 154.977 22.8242 154.75 23.1836C154.523 23.543 154.41 23.9492 154.41 24.4023C154.41 24.7227 154.484 25.0156 154.633 25.2812C154.781 25.5391 155.008 25.7812 155.312 26.0078C155.617 26.2266 156 26.4336 156.461 26.6289C156.922 26.8242 157.465 27.0117 158.09 27.1914C159.035 27.4727 159.859 27.7852 160.562 28.1289C161.266 28.4648 161.852 28.8477 162.32 29.2773C162.789 29.707 163.141 30.1953 163.375 30.7422C163.609 31.2812 163.727 31.8945 163.727 32.582C163.727 33.3008 163.582 33.9492 163.293 34.5273C163.004 35.0977 162.59 35.5859 162.051 35.9922C161.52 36.3906 160.879 36.6992 160.129 36.918C159.387 37.1289 158.559 37.2344 157.645 37.2344C156.824 37.2344 156.016 37.125 155.219 36.9062C154.43 36.6875 153.711 36.3555 153.062 35.9102C152.414 35.457 151.898 34.8945 151.516 34.2227C151.133 33.543 150.941 32.75 150.941 31.8438H153.883C153.883 32.3984 153.977 32.8711 154.164 33.2617C154.359 33.6523 154.629 33.9727 154.973 34.2227C155.316 34.4648 155.715 34.6445 156.168 34.7617C156.629 34.8789 157.121 34.9375 157.645 34.9375C158.332 34.9375 158.906 34.8398 159.367 34.6445C159.836 34.4492 160.188 34.1758 160.422 33.8242C160.656 33.4727 160.773 33.0664 160.773 32.6055ZM168.836 19V37H166.023V19H168.836ZM168.344 30.1914L167.43 30.1797C167.438 29.3047 167.559 28.4961 167.793 27.7539C168.035 27.0117 168.371 26.3672 168.801 25.8203C169.238 25.2656 169.762 24.8398 170.371 24.543C170.98 24.2383 171.656 24.0859 172.398 24.0859C173.023 24.0859 173.586 24.1719 174.086 24.3438C174.594 24.5156 175.031 24.793 175.398 25.1758C175.766 25.5508 176.043 26.043 176.23 26.6523C176.426 27.2539 176.523 27.9883 176.523 28.8555V37H173.688V28.832C173.688 28.2227 173.598 27.7383 173.418 27.3789C173.246 27.0195 172.992 26.7617 172.656 26.6055C172.32 26.4414 171.91 26.3594 171.426 26.3594C170.918 26.3594 170.469 26.4609 170.078 26.6641C169.695 26.8672 169.375 27.1445 169.117 27.4961C168.859 27.8477 168.664 28.2539 168.531 28.7148C168.406 29.1758 168.344 29.668 168.344 30.1914ZM178.844 30.8008V30.5312C178.844 29.6172 178.977 28.7695 179.242 27.9883C179.508 27.1992 179.891 26.5156 180.391 25.9375C180.898 25.3516 181.516 24.8984 182.242 24.5781C182.977 24.25 183.805 24.0859 184.727 24.0859C185.656 24.0859 186.484 24.25 187.211 24.5781C187.945 24.8984 188.566 25.3516 189.074 25.9375C189.582 26.5156 189.969 27.1992 190.234 27.9883C190.5 28.7695 190.633 29.6172 190.633 30.5312V30.8008C190.633 31.7148 190.5 32.5625 190.234 33.3438C189.969 34.125 189.582 34.8086 189.074 35.3945C188.566 35.9727 187.949 36.4258 187.223 36.7539C186.496 37.0742 185.672 37.2344 184.75 37.2344C183.82 37.2344 182.988 37.0742 182.254 36.7539C181.527 36.4258 180.91 35.9727 180.402 35.3945C179.895 34.8086 179.508 34.125 179.242 33.3438C178.977 32.5625 178.844 31.7148 178.844 30.8008ZM181.668 30.5312V30.8008C181.668 31.3711 181.727 31.9102 181.844 32.418C181.961 32.9258 182.145 33.3711 182.395 33.7539C182.645 34.1367 182.965 34.4375 183.355 34.6562C183.746 34.875 184.211 34.9844 184.75 34.9844C185.273 34.9844 185.727 34.875 186.109 34.6562C186.5 34.4375 186.82 34.1367 187.07 33.7539C187.32 33.3711 187.504 32.9258 187.621 32.418C187.746 31.9102 187.809 31.3711 187.809 30.8008V30.5312C187.809 29.9688 187.746 29.4375 187.621 28.9375C187.504 28.4297 187.316 27.9805 187.059 27.5898C186.809 27.1992 186.488 26.8945 186.098 26.6758C185.715 26.4492 185.258 26.3359 184.727 26.3359C184.195 26.3359 183.734 26.4492 183.344 26.6758C182.961 26.8945 182.645 27.1992 182.395 27.5898C182.145 27.9805 181.961 28.4297 181.844 28.9375C181.727 29.4375 181.668 29.9688 181.668 30.5312ZM195.836 26.7578V41.875H193.012V24.3203H195.613L195.836 26.7578ZM204.098 30.543V30.7891C204.098 31.7109 203.988 32.5664 203.77 33.3555C203.559 34.1367 203.242 34.8203 202.82 35.4062C202.406 35.9844 201.895 36.4336 201.285 36.7539C200.676 37.0742 199.973 37.2344 199.176 37.2344C198.387 37.2344 197.695 37.0898 197.102 36.8008C196.516 36.5039 196.02 36.0859 195.613 35.5469C195.207 35.0078 194.879 34.375 194.629 33.6484C194.387 32.9141 194.215 32.1094 194.113 31.2344V30.2852C194.215 29.3555 194.387 28.5117 194.629 27.7539C194.879 26.9961 195.207 26.3438 195.613 25.7969C196.02 25.25 196.516 24.8281 197.102 24.5312C197.688 24.2344 198.371 24.0859 199.152 24.0859C199.949 24.0859 200.656 24.2422 201.273 24.5547C201.891 24.8594 202.41 25.2969 202.832 25.8672C203.254 26.4297 203.57 27.1094 203.781 27.9062C203.992 28.6953 204.098 29.5742 204.098 30.543ZM201.273 30.7891V30.543C201.273 29.957 201.219 29.4141 201.109 28.9141C201 28.4062 200.828 27.9609 200.594 27.5781C200.359 27.1953 200.059 26.8984 199.691 26.6875C199.332 26.4688 198.898 26.3594 198.391 26.3594C197.891 26.3594 197.461 26.4453 197.102 26.6172C196.742 26.7812 196.441 27.0117 196.199 27.3086C195.957 27.6055 195.77 27.9531 195.637 28.3516C195.504 28.7422 195.41 29.168 195.355 29.6289V31.9023C195.449 32.4648 195.609 32.9805 195.836 33.4492C196.062 33.918 196.383 34.293 196.797 34.5742C197.219 34.8477 197.758 34.9844 198.414 34.9844C198.922 34.9844 199.355 34.875 199.715 34.6562C200.074 34.4375 200.367 34.1367 200.594 33.7539C200.828 33.3633 201 32.9141 201.109 32.4062C201.219 31.8984 201.273 31.3594 201.273 30.7891Z" fill="#E5E5E5"/>
<g filter="url(#filter0_d_504_21)">
<path d="M6.86691 15.2477L15.8186 32.6361L37.0571 30.6044" stroke="white" stroke-width="4" stroke-linecap="round" stroke-linejoin="round"/>
</g>
<g filter="url(#filter1_d_504_21)">
<path d="M17.263 25.7134L33.5274 24.5708" stroke="white" stroke-width="4" stroke-linecap="round" stroke-linejoin="round"/>
</g>
<g filter="url(#filter2_d_504_21)">
<path d="M12.8292 18.5435L36.093 16.9581" stroke="white" stroke-width="4" stroke-linecap="round" stroke-linejoin="round"/>
</g>
<g filter="url(#filter3_dd_504_21)">
<path d="M8.48743 36C51 44.3571 43.9146 24.7508 43.9146 14.1429C43.9146 7.71429 51 17.6786 51 5.46428" stroke="white" stroke-width="4" stroke-linecap="round" stroke-linejoin="round"/>
</g>
<g filter="url(#filter4_dd_504_21)">
<g filter="url(#filter5_d_504_21)">
<ellipse cx="39.6633" cy="41.4643" rx="2.59799" ry="3.53572" fill="black"/>
<ellipse cx="39.6633" cy="41.4643" rx="2.59799" ry="3.53572" stroke="black" stroke-linecap="round" stroke-linejoin="round"/>
</g>
</g>
<g filter="url(#filter6_dd_504_21)">
<ellipse cx="12.9749" cy="42.4286" rx="2.36181" ry="3.21429" fill="black"/>
<ellipse cx="12.9749" cy="42.4286" rx="2.36181" ry="3.21429" stroke="black" stroke-linecap="round" stroke-linejoin="round"/>
</g>
<g filter="url(#filter7_dd_504_21)">
<ellipse cx="12.9749" cy="42.4286" rx="0.944724" ry="1.28572" fill="#7348AE"/>
<ellipse cx="12.9749" cy="42.4286" rx="0.944724" ry="1.28572" stroke="white" stroke-linecap="round" stroke-linejoin="round"/>
</g>
<g filter="url(#filter8_dd_504_21)">
<ellipse cx="39.6633" cy="41.4643" rx="1.1809" ry="1.60714" fill="#7348AE"/>
<ellipse cx="39.6633" cy="41.4643" rx="1.1809" ry="1.60714" stroke="white" stroke-linecap="round" stroke-linejoin="round"/>
</g>
<g filter="url(#filter9_d_504_21)">
<ellipse cx="38.8367" cy="23.9464" rx="2.95226" ry="4.01786" fill="white"/>
</g>
<ellipse cx="51.1181" cy="4.01786" rx="1.299" ry="1.76786" fill="black"/>
<defs>
<filter id="filter0_d_504_21" x="0.909668" y="13.2218" width="42.1044" height="29.4399" filterUnits="userSpaceOnUse" color-interpolation-filters="sRGB">
<feFlood flood-opacity="0" result="BackgroundImageFix"/>
<feColorMatrix in="SourceAlpha" type="matrix" values="0 0 0 0 0 0 0 0 0 0 0 0 0 0 0 0 0 0 127 0" result="hardAlpha"/>
<feOffset dy="4"/>
<feGaussianBlur stdDeviation="2"/>
<feColorMatrix type="matrix" values="0 0 0 0 0 0 0 0 0 0 0 0 0 0 0 0 0 0 0.25 0"/>
<feBlend mode="normal" in2="BackgroundImageFix" result="effect1_dropShadow_504_21"/>
<feBlend mode="normal" in="SourceGraphic" in2="effect1_dropShadow_504_21" result="shape"/>
</filter>
<filter id="filter1_d_504_21" x="11.5536" y="22.2938" width="27.6832" height="13.6965" filterUnits="userSpaceOnUse" color-interpolation-filters="sRGB">
<feFlood flood-opacity="0" result="BackgroundImageFix"/>
<feColorMatrix in="SourceAlpha" type="matrix" values="0 0 0 0 0 0 0 0 0 0 0 0 0 0 0 0 0 0 127 0" result="hardAlpha"/>
<feOffset dy="4"/>
<feGaussianBlur stdDeviation="2"/>
<feColorMatrix type="matrix" values="0 0 0 0 0 0 0 0 0 0 0 0 0 0 0 0 0 0 0.25 0"/>
<feBlend mode="normal" in2="BackgroundImageFix" result="effect1_dropShadow_504_21"/>
<feBlend mode="normal" in="SourceGraphic" in2="effect1_dropShadow_504_21" result="shape"/>
</filter>
<filter id="filter2_d_504_21" x="7.1282" y="14.6762" width="34.6658" height="14.1493" filterUnits="userSpaceOnUse" color-interpolation-filters="sRGB">
<feFlood flood-opacity="0" result="BackgroundImageFix"/>
<feColorMatrix in="SourceAlpha" type="matrix" values="0 0 0 0 0 0 0 0 0 0 0 0 0 0 0 0 0 0 127 0" result="hardAlpha"/>
<feOffset dy="4"/>
<feGaussianBlur stdDeviation="2"/>
<feColorMatrix type="matrix" values="0 0 0 0 0 0 0 0 0 0 0 0 0 0 0 0 0 0 0.25 0"/>
<feBlend mode="normal" in2="BackgroundImageFix" result="effect1_dropShadow_504_21"/>
<feBlend mode="normal" in="SourceGraphic" in2="effect1_dropShadow_504_21" result="shape"/>
</filter>
<filter id="filter3_dd_504_21" x="2.48706" y="3.46428" width="54.5129" height="44.5552" filterUnits="userSpaceOnUse" color-interpolation-filters="sRGB">
<feFlood flood-opacity="0" result="BackgroundImageFix"/>
<feColorMatrix in="SourceAlpha" type="matrix" values="0 0 0 0 0 0 0 0 0 0 0 0 0 0 0 0 0 0 127 0" result="hardAlpha"/>
<feOffset dy="4"/>
<feGaussianBlur stdDeviation="2"/>
<feColorMatrix type="matrix" values="0 0 0 0 0 0 0 0 0 0 0 0 0 0 0 0 0 0 0.25 0"/>
<feBlend mode="normal" in2="BackgroundImageFix" result="effect1_dropShadow_504_21"/>
<feColorMatrix in="SourceAlpha" type="matrix" values="0 0 0 0 0 0 0 0 0 0 0 0 0 0 0 0 0 0 127 0" result="hardAlpha"/>
<feOffset dy="4"/>
<feGaussianBlur stdDeviation="2"/>
<feColorMatrix type="matrix" values="0 0 0 0 0 0 0 0 0 0 0 0 0 0 0 0 0 0 0.25 0"/>
<feBlend mode="normal" in2="effect1_dropShadow_504_21" result="effect2_dropShadow_504_21"/>
<feBlend mode="normal" in="SourceGraphic" in2="effect2_dropShadow_504_21" result="shape"/>
</filter>
<filter id="filter4_dd_504_21" x="32.5653" y="37.4286" width="14.196" height="16.0714" filterUnits="userSpaceOnUse" color-interpolation-filters="sRGB">
<feFlood flood-opacity="0" result="BackgroundImageFix"/>
<feColorMatrix in="SourceAlpha" type="matrix" values="0 0 0 0 0 0 0 0 0 0 0 0 0 0 0 0 0 0 127 0" result="hardAlpha"/>
<feOffset dy="4"/>
<feGaussianBlur stdDeviation="2"/>
<feColorMatrix type="matrix" values="0 0 0 0 0 0 0 0 0 0 0 0 0 0 0 0 0 0 0.25 0"/>
<feBlend mode="normal" in2="BackgroundImageFix" result="effect1_dropShadow_504_21"/>
<feColorMatrix in="SourceAlpha" type="matrix" values="0 0 0 0 0 0 0 0 0 0 0 0 0 0 0 0 0 0 127 0" result="hardAlpha"/>
<feOffset dy="4"/>
<feGaussianBlur stdDeviation="2"/>
<feColorMatrix type="matrix" values="0 0 0 0 0 0 0 0 0 0 0 0 0 0 0 0 0 0 0.25 0"/>
<feBlend mode="normal" in2="effect1_dropShadow_504_21" result="effect2_dropShadow_504_21"/>
<feBlend mode="normal" in="SourceGraphic" in2="effect2_dropShadow_504_21" result="shape"/>
</filter>
<filter id="filter5_d_504_21" x="32.5653" y="37.4286" width="14.196" height="16.0714" filterUnits="userSpaceOnUse" color-interpolation-filters="sRGB">
<feFlood flood-opacity="0" result="BackgroundImageFix"/>
<feColorMatrix in="SourceAlpha" type="matrix" values="0 0 0 0 0 0 0 0 0 0 0 0 0 0 0 0 0 0 127 0" result="hardAlpha"/>
<feOffset dy="4"/>
<feGaussianBlur stdDeviation="2"/>
<feColorMatrix type="matrix" values="0 0 0 0 0 0 0 0 0 0 0 0 0 0 0 0 0 0 0.25 0"/>
<feBlend mode="normal" in2="BackgroundImageFix" result="effect1_dropShadow_504_21"/>
<feBlend mode="normal" in="SourceGraphic" in2="effect1_dropShadow_504_21" result="shape"/>
</filter>
<filter id="filter6_dd_504_21" x="6.11307" y="38.7143" width="13.7236" height="15.4286" filterUnits="userSpaceOnUse" color-interpolation-filters="sRGB">
<feFlood flood-opacity="0" result="BackgroundImageFix"/>
<feColorMatrix in="SourceAlpha" type="matrix" values="0 0 0 0 0 0 0 0 0 0 0 0 0 0 0 0 0 0 127 0" result="hardAlpha"/>
<feOffset dy="4"/>
<feGaussianBlur stdDeviation="2"/>
<feColorMatrix type="matrix" values="0 0 0 0 0 0 0 0 0 0 0 0 0 0 0 0 0 0 0.25 0"/>
<feBlend mode="normal" in2="BackgroundImageFix" result="effect1_dropShadow_504_21"/>
<feColorMatrix in="SourceAlpha" type="matrix" values="0 0 0 0 0 0 0 0 0 0 0 0 0 0 0 0 0 0 127 0" result="hardAlpha"/>
<feOffset dy="4"/>
<feGaussianBlur stdDeviation="2"/>
<feColorMatrix type="matrix" values="0 0 0 0 0 0 0 0 0 0 0 0 0 0 0 0 0 0 0.25 0"/>
<feBlend mode="normal" in2="effect1_dropShadow_504_21" result="effect2_dropShadow_504_21"/>
<feBlend mode="normal" in="SourceGraphic" in2="effect2_dropShadow_504_21" result="shape"/>
</filter>
<filter id="filter7_dd_504_21" x="7.53015" y="40.6429" width="10.8894" height="11.5714" filterUnits="userSpaceOnUse" color-interpolation-filters="sRGB">
<feFlood flood-opacity="0" result="BackgroundImageFix"/>
<feColorMatrix in="SourceAlpha" type="matrix" values="0 0 0 0 0 0 0 0 0 0 0 0 0 0 0 0 0 0 127 0" result="hardAlpha"/>
<feOffset dy="4"/>
<feGaussianBlur stdDeviation="2"/>
<feColorMatrix type="matrix" values="0 0 0 0 0 0 0 0 0 0 0 0 0 0 0 0 0 0 0.25 0"/>
<feBlend mode="normal" in2="BackgroundImageFix" result="effect1_dropShadow_504_21"/>
<feColorMatrix in="SourceAlpha" type="matrix" values="0 0 0 0 0 0 0 0 0 0 0 0 0 0 0 0 0 0 127 0" result="hardAlpha"/>
<feOffset dy="4"/>
<feGaussianBlur stdDeviation="2"/>
<feColorMatrix type="matrix" values="0 0 0 0 0 0 0 0 0 0 0 0 0 0 0 0 0 0 0.25 0"/>
<feBlend mode="normal" in2="effect1_dropShadow_504_21" result="effect2_dropShadow_504_21"/>
<feBlend mode="normal" in="SourceGraphic" in2="effect2_dropShadow_504_21" result="shape"/>
</filter>
<filter id="filter8_dd_504_21" x="33.9824" y="39.3571" width="11.3618" height="12.2143" filterUnits="userSpaceOnUse" color-interpolation-filters="sRGB">
<feFlood flood-opacity="0" result="BackgroundImageFix"/>
<feColorMatrix in="SourceAlpha" type="matrix" values="0 0 0 0 0 0 0 0 0 0 0 0 0 0 0 0 0 0 127 0" result="hardAlpha"/>
<feOffset dy="4"/>
<feGaussianBlur stdDeviation="2"/>
<feColorMatrix type="matrix" values="0 0 0 0 0 0 0 0 0 0 0 0 0 0 0 0 0 0 0.25 0"/>
<feBlend mode="normal" in2="BackgroundImageFix" result="effect1_dropShadow_504_21"/>
<feColorMatrix in="SourceAlpha" type="matrix" values="0 0 0 0 0 0 0 0 0 0 0 0 0 0 0 0 0 0 127 0" result="hardAlpha"/>
<feOffset dy="4"/>
<feGaussianBlur stdDeviation="2"/>
<feComposite in2="hardAlpha" operator="out"/>
<feColorMatrix type="matrix" values="0 0 0 0 0 0 0 0 0 0 0 0 0 0 0 0 0 0 0.25 0"/>
<feBlend mode="normal" in2="effect1_dropShadow_504_21" result="effect2_dropShadow_504_21"/>
<feBlend mode="normal" in="SourceGraphic" in2="effect2_dropShadow_504_21" result="shape"/>
</filter>
<filter id="filter9_d_504_21" x="31.8844" y="19.9286" width="13.9045" height="16.0357" filterUnits="userSpaceOnUse" color-interpolation-filters="sRGB">
<feFlood flood-opacity="0" result="BackgroundImageFix"/>
<feColorMatrix in="SourceAlpha" type="matrix" values="0 0 0 0 0 0 0 0 0 0 0 0 0 0 0 0 0 0 127 0" result="hardAlpha"/>
<feOffset dy="4"/>
<feGaussianBlur stdDeviation="2"/>
<feColorMatrix type="matrix" values="0 0 0 0 0 0 0 0 0 0 0 0 0 0 0 0 0 0 0.25 0"/>
<feBlend mode="normal" in2="BackgroundImageFix" result="effect1_dropShadow_504_21"/>
<feBlend mode="normal" in="SourceGraphic" in2="effect1_dropShadow_504_21" result="shape"/>
</filter>
</defs>
</svg>
